<svg width="20" height="20" viewBox="0 0 20 20" fill="none" xmlns="http://www.w3.org/2000/svg">
<path d="M19.4242 15.0154L16.5335 12.1105C16.1453 11.7225 15.6255 11.5088 15.07 11.5088C14.4919 11.5088 13.9461 11.7374 13.5334 12.1522L12.4082 13.2822C11.5339 12.794 10.3717 12.1226 9.16518 10.9106C7.96004 9.69964 7.29153 8.5357 6.80305 7.65267L7.92934 6.52214C8.76672 5.67925 8.78385 4.32698 7.96765 3.50786L5.07758 0.604701C4.69045 0.214754 4.17062 0 3.61372 0C3.04854 0 2.5139 0.218577 2.10361 0.616419C1.8554 0.81721 0.609795 1.92173 0.145559 4.19958C-0.50442 7.38789 0.988976 10.4555 5.30022 14.7879C10.1162 19.6241 14.2277 20 15.3731 20C15.6115 20 15.7554 19.9852 15.7938 19.9807C18.0399 19.7163 18.844 18.7143 19.4312 17.9827C20.1921 17.0345 20.1894 15.7869 19.4242 15.0154ZM18.465 17.2002C17.9131 17.8879 17.3919 18.5373 15.6494 18.7425C15.6485 18.7426 15.5532 18.7533 15.3731 18.7533C14.3483 18.7533 10.6564 18.4037 6.17781 13.9064C2.20206 9.91107 0.806625 7.17122 1.36137 4.44957C1.76629 2.46277 2.84129 1.6183 2.88307 1.58622L2.92013 1.55871L2.95265 1.52596C3.13211 1.34587 3.36683 1.24663 3.61363 1.24663C3.83835 1.24663 4.04618 1.33124 4.19941 1.48566L7.09015 4.38948C7.42275 4.72325 7.40504 5.2849 7.05118 5.6411L5.77745 6.91948L5.75651 6.94151C5.42457 7.30877 5.46363 7.80509 5.64647 8.1283C6.17409 9.08472 6.89679 10.3946 8.28743 11.7919C9.67343 13.1842 10.9755 13.9095 11.925 14.4385C12.0201 14.4921 12.2163 14.582 12.462 14.582C12.7521 14.582 13.0184 14.4587 13.2156 14.2339L14.4109 13.0335C14.5894 12.8541 14.8234 12.7553 15.0699 12.7553C15.2951 12.7553 15.504 12.8402 15.6569 12.9929L18.5456 15.8959C18.9126 16.2658 18.7611 16.8314 18.465 17.2002Z" fill="#222222"/>
</svg>
